<svg version="1.1" id="ClubNicotine" xmlns="http://www.w3.org/2000/svg" xmlns:xlink="http://www.w3.org/1999/xlink" x="0px" y="0px" width="300px" height="300px" viewBox="-270 148.3 300 300" style="enable-background:new -270 148.3 300 300;" xml:space="preserve">

<g>
	<path class="st0" d="M-196.6,412.3c-3.8,0-7.2-1.6-9.6-4.6c-1.5-1.9-2.6-4-3.1-6.2c-0.6-2.8,0-5,0.8-7.2c1.3-3.6,3.2-7.1,5.5-10
		c2-2.6,4.3-4.3,6.4-5.9c0.6-0.5,1.3-1,2-1.5c4.1-3.3,7.7-0.7,9.8,0.8c0.4,0.3,0.9,0.6,1.3,0.9c0.1,0.1,0.3,0.2,0.4,0.3
		c0.4,0,1.1,0,1.8,0.3c1.7,0.8,3,2.9,3.9,6.5c0.4,1.4-0.5,2.8-1.9,3.2c-1.4,0.4-2.8-0.5-3.2-1.9c-0.4-1.5-0.8-2.4-1.1-2.8
		c-0.2,0-0.5,0-0.7-0.1c-0.9-0.2-1.5-0.6-1.8-0.9c-0.1,0-0.1-0.1-0.2-0.1c-0.6-0.3-1.1-0.7-1.6-1.1c-2.3-1.7-2.7-1.7-3.6-0.9
		c-0.7,0.6-1.4,1.1-2.1,1.6c-2.1,1.6-3.9,2.9-5.5,4.9c-1.9,2.5-3.5,5.4-4.6,8.6c-0.7,1.9-0.9,3-0.6,4.4c0.3,1.4,1,2.8,2,4.1
		c1.9,2.4,4.9,3.2,8.1,2.2c1.4-0.4,2.8,0.4,3.2,1.8c0.4,1.4-0.4,2.8-1.8,3.2C-193.9,412.1-195.2,412.3-196.6,412.3z"></path>
	<path class="st0" d="M-248.2,349.9c-0.4,0-0.8-0.1-1.2-0.3c-0.6-0.3-1.1-1-1.3-1.7c-0.6-2.3,1.2-4.1,2.2-5.1l0.1-0.2
		c1.5-1.6,2.9-3.3,4.4-5.2c0.5-0.7,1.1-1.3,1.6-2c2-2.5,4-5,5.9-7.5c0.5-0.7,1-1.3,1.6-2c0.8-1.1,1.7-1.9,2.5-2.6
		c1.3-1.1,2.2-2,2.6-3.4c0,0,0-0.1,0-0.1c0.4-1.1,0.8-2.1,1.2-3.1c-2.1,0.9-4.2,1.7-6.3,2.5l-0.5,0.2c-1.8,0.7-3.6,1.9-5.4,3.1
		c-0.7,0.5-1.4,0.9-2.1,1.4c-0.7,0.4-1.4,0.9-2.1,1.4c-2.1,1.5-4.5,3.1-7,3.8c-0.6,0.1-1.1,0.3-1.7,0.5c-0.6,0.8-1.7,1.3-2.7,1
		l-0.7-0.2c-1.1-0.3-1.9-1.2-2-2.3c-0.1-1.1,0.5-2.2,1.6-2.6c1.4-0.6,2.8-1.1,4.2-1.4c1.7-0.4,3.6-1.8,5.4-3
		c0.8-0.5,1.6-1.1,2.3-1.6c0.7-0.4,1.3-0.8,2-1.3c2-1.3,4-2.7,6.4-3.6l0.5-0.2c2.5-1,5.1-1.9,7.5-3.1c0.1-0.1,0.4-0.2,0.7-0.4
		c1.7-1,4.2-2.4,6.3-1.1c0.9,0.5,1.3,1.5,1.2,2.6c-0.2,1.2-0.6,2.2-1.4,3.1c-0.9,2-1.7,4-2.4,6c-0.8,2.8-2.5,4.3-4,5.7
		c-0.7,0.6-1.4,1.2-1.9,1.9c-0.5,0.7-1,1.3-1.5,2c-1.9,2.5-3.9,5.1-6,7.6c-0.5,0.7-1.1,1.3-1.6,2c-0.1,0.1-0.2,0.2-0.3,0.4
		c0.6-0.3,1.2-0.6,1.8-0.9c1.2-0.6,2.4-1.1,3.5-1.7l1.9-0.9c1.6-0.8,3.2-1.5,4.9-2.3c0.1-0.1,0.2-0.1,0.3-0.2
		c0.6-0.3,1.4-0.7,2.2-0.8c0.4-0.1,0.7-0.1,1-0.2c0.2,0,0.3,0,0.4-0.1c0.8-0.2,1.7-0.7,2.6-1.2c0.4-0.2,0.8-0.4,1.2-0.6
		c1.6-0.8,3.2-1.6,4.9-2.3c1.3-0.6,2.8,0,3.4,1.3c0.6,1.3,0,2.8-1.3,3.4c-1.6,0.7-3.2,1.5-4.8,2.3c-0.3,0.2-0.7,0.4-1.1,0.6
		c-1.2,0.6-2.5,1.3-4,1.7c-0.3,0.1-0.7,0.1-0.9,0.1c-0.2,0-0.3,0-0.4,0.1c-0.3,0.1-0.7,0.3-1.1,0.5c-0.1,0.1-0.3,0.1-0.4,0.2
		c-1.6,0.8-3.2,1.5-4.9,2.3l-1.8,0.9c-1.2,0.5-2.3,1.1-3.5,1.7c-3.6,1.7-7.2,3.5-11.1,4.8C-247.6,349.8-247.9,349.9-248.2,349.9z"></path>
	<path class="st0" d="M-234.1,380.2c-1.1,0-2.1-0.7-2.4-1.7c-0.4-1.1,0-2.3,0.9-3c0.8-0.6,1.3-1.1,2-1.9c0.3-0.4,0.7-0.7,1.1-1.2
		c1.2-1.2,2.5-2.2,3.8-3.3c1.1-0.9,2.2-1.8,3.2-2.7c0.7-0.7,1.5-1.4,2.2-2.1c1.5-1.5,3.1-3,4.8-4.4c0,0,0,0,0.1,0
		c1.6-1.2,3.2-2.4,4.8-3.6c1.1-1.2,2.6-1.8,4.1-1.4c1.4,0.3,2.3,1.7,2,3.1c-0.3,1.2-1.3,2-2.5,2.1c-0.1,0.1-0.2,0.2-0.3,0.2
		c-1.7,1.3-3.4,2.6-5.1,3.8c-1.5,1.2-2.9,2.6-4.3,4c-0.7,0.7-1.5,1.5-2.3,2.2c-1.1,1.1-2.3,2-3.4,2.9c-1.1,0.9-2.2,1.8-3.1,2.7
		c0,0.6-0.2,1.1-0.6,1.6c-1.6,2.1-3.6,2.6-4.9,2.7C-234.1,380.2-234.1,380.2-234.1,380.2z"></path>
	<path class="st0" d="M-157.7,429.1c-0.6,0-1.2,0-1.8-0.1c-4-0.3-7.1-1.9-8.7-4.6c-1.9-3.1-2.6-7.3-2.1-12.3l0.1-0.7
		c0.2-2.5,0.5-5,1.7-7.5c1.1-2.4,3-5.7,5.7-7.8c0.4-0.3,0.8-0.5,1.2-0.8c0.2-0.1,0.3-0.2,0.5-0.3c4.1-2,9.7-1.4,13.5,1.5
		c4.9,3.7,3.9,9.6,3.2,13.9c-0.1,0.9-0.3,1.7-0.4,2.4c-0.3,2.7-1,4.9-2.3,7.6c-0.2,0.4-0.4,1-0.7,1.6c-0.5,1.4-1,2.9-2,4.1
		C-151.5,428.1-154.1,429.1-157.7,429.1z M-156,399c-1.1,0-2.1,0.2-3,0.6c-0.1,0-0.2,0.1-0.2,0.1c-0.2,0.1-0.4,0.2-0.6,0.4
		c0,0,0,0,0,0c-2,1.6-3.7,4.9-4.2,5.9c-0.8,1.7-1,3.7-1.2,5.8l-0.1,0.7c-0.4,3.9,0.1,7,1.4,9.1c1,1.7,3.6,2,4.7,2.1
		c3.1,0.2,4.7-0.3,5.2-0.9c0.4-0.5,0.8-1.6,1.1-2.5c0.3-0.7,0.5-1.5,0.9-2.2c1.1-2.1,1.6-3.8,1.8-6c0.1-0.9,0.3-1.8,0.4-2.7
		c0.7-4.4,1-7.2-1.2-8.9C-152.3,399.6-154.2,399-156,399z"></path>
	<path class="st0" d="M-96.1,404.9c-1,0-1.9-0.6-2.3-1.4c-0.7-0.1-1.5-0.1-2-0.1l-0.2,0c-1.6,0-3.2-0.1-5-0.5
		c-1.1-0.3-2.6-0.2-4-0.2c-0.7,0-1.4,0-2.1,0l-2.5,0c-1.4,0-2.9,0-4.3-0.1c-0.6,0-1.2-0.1-1.8-0.1c-0.6,0-1.3-0.1-1.9-0.1
		c-1,0.8-2.4,0.8-3.3-0.1l-0.5-0.4c-0.7-0.6-1-1.7-0.8-2.6c0.2-0.9,1-1.7,2-1.9c1.6-0.3,3.3-0.2,4.9-0.1c0.6,0,1.1,0.1,1.5,0.1
		c1.4,0,2.9,0,4.3,0.1l2.5,0c0.6,0,1.2,0,1.9,0c1.7-0.1,3.7-0.1,5.5,0.3c1.1,0.3,2.1,0.4,3.7,0.4l0.2,0c1.6,0,3.9,0,5.6,1.1
		c0.7,0.5,1.2,1.2,1.2,2.1l0,0.8c0.1,1.4-1.1,2.6-2.5,2.7C-96,404.9-96.1,404.9-96.1,404.9z"></path>
	<path class="st0" d="M-115.1,437.6c-0.7,0-1.4-0.3-1.9-0.8c-0.9-0.9-0.9-2.4-0.1-3.3c0-0.1,0-0.2,0-0.3c0-0.2,0-0.4,0-0.6
		c0-1.2,0.2-2.1,0.4-3l0.1-0.4c0.3-1.6,0.5-3.1,0.7-4.8c0.1-0.9,0.2-1.9,0.4-2.8c0.3-2.2,0.3-4.6,0.3-7c0-1.1,0-2.2,0-3.2
		c0-0.8,0-1.7,0-2.5c0-1.5,0-3.1,0.1-4.6c-0.2-1.5,0.4-2.9,1.6-3.8c1.1-0.9,2.8-0.6,3.6,0.5c0.7,1,0.7,2.3,0,3.2c0,0.1,0,0.2,0,0.2
		c-0.1,1.4-0.1,2.9-0.1,4.5c0,0.9,0,1.8,0,2.7c0,1,0,2,0,3.1c0,2.6,0.1,5.2-0.3,7.8c-0.1,0.9-0.3,1.8-0.4,2.7
		c-0.2,1.7-0.4,3.4-0.8,5.1l-0.1,0.4c-0.2,0.8-0.3,1.4-0.3,2.1c0,0.1,0,0.2,0,0.4c0,0.9,0.1,2.6-1.4,4
		C-113.8,437.4-114.5,437.6-115.1,437.6z"></path>
	<path class="st0" d="M-62.7,424.2c-1.1,0-2.1-0.7-2.5-1.8c-0.2-0.6-0.3-1.2-0.3-1.5c0-0.1,0-0.3-0.1-0.4l0,0c0,0,0,0,0-0.1
		c-0.6-0.8-1.1-1.7-1.6-2.5c-0.3-0.4-0.5-0.8-0.8-1.2l-11.7-17.9c-0.8-1.2-0.4-2.8,0.8-3.6c1.2-0.8,2.8-0.4,3.6,0.8l11.7,17.9
		c0.3,0.4,0.5,0.8,0.8,1.3c0.5,0.8,1,1.6,1.5,2.3c0.8,1.1,0.9,2.1,1,2.8c0,0.3,0.1,0.4,0.1,0.6c0.4,1.4-0.4,2.8-1.7,3.2
		C-62.2,424.2-62.4,424.2-62.7,424.2z"></path>
	<path class="st0" d="M-32.2,406.3c-0.6,0-1.1-0.2-1.6-0.5c-2-1.6-3.6-3.4-5.1-5.2c-0.3-0.3-0.5-0.6-0.8-0.9c-1.7-2-3.3-3.9-5-5.9
		c-3.3-3.8-6.6-7.8-10-11.7c-0.3-0.3-0.6-0.6-0.9-1.1c-0.7-1.1-0.4-2.6,0.7-3.4c1.1-0.8,2.6-0.6,3.5,0.4c0,0,0,0,0,0
		c0.3,0.1,0.6,0.3,0.9,0.5c0.2,0,0.4,0.1,0.7,0.1c0.1,0,0.2,0.1,0.4,0.1c2.2,0.8,4.4,1.6,6.5,2.4c4.2,1.6,8.3,3.5,12,5.3
		c0.4,0.2,0.9,0.4,1.3,0.6c-0.5-0.7-1.1-1.3-1.6-2c-2.2-3-3.9-6-5.7-9.4c-0.2-0.4-0.5-0.9-0.8-1.3c-0.5-0.7-1-1.5-1.4-2.4
		c-0.2-0.5-0.3-1-0.4-1.4c0-0.1,0-0.2-0.1-0.2c-0.9-0.4-1.5-1.3-1.5-2.3c0-1.4,1.1-2.6,2.5-2.7c3.2-0.1,3.9,3,4.1,4
		c0,0.2,0.1,0.4,0.1,0.5c0.2,0.5,0.6,1.1,1,1.7c0.4,0.5,0.7,1.1,1,1.7c1.7,3.2,3.3,6.1,5.3,8.8c1.3,1.7,2.7,3.3,4.2,5
		c1.5,1.7,3,3.4,4.4,5.3c0.8,1.1,0.7,2.7-0.4,3.5c-1.9,1.6-4.7,0.1-7.1-1.2c-0.1-0.1-0.2-0.1-0.3-0.2c-1.5-0.8-3-1.5-4.5-2.2
		c-0.8-0.4-1.6-0.7-2.4-1.1c-4.1-2-7.7-3.6-11.3-5.1c1.3,1.5,2.5,3,3.7,4.4c1.7,2,3.3,3.9,5,5.9c0.3,0.3,0.5,0.6,0.8,0.9
		c1.4,1.7,2.7,3.2,4.3,4.5c1.1,0.9,1.3,2.5,0.5,3.6C-30.7,405.9-31.5,406.3-32.2,406.3z"></path>
	<path class="st0" d="M2.5,368.4c-0.3,0-0.5,0-0.8-0.1c-0.4-0.1-0.7-0.3-1-0.5c-0.7-0.5-1.4-1-2.1-1.5c-0.9-0.6-1.9-1.2-2.8-1.8
		c0,0,0,0-0.1,0c-1.5-1-2.8-2.1-4.1-3.2c-0.5-0.4-1-0.8-1.5-1.2c-3.4-2.7-7.1-5-10.8-7.3c-0.6-0.4-1.3-0.8-1.9-1.2
		c-0.1,0-0.2-0.1-0.3-0.1c-1.7-0.9-3.4-1.9-4.3-3.2c-0.8-0.4-1.6-1-2.4-1.8c-0.7-0.7-0.9-1.7-0.6-2.6c0.5-1.6,1.6-3,2.5-4.3
		c0.3-0.5,0.7-0.9,0.9-1.3l4.9-7.7c0.4-0.7,0.7-1.4,1-2.2c0.2-0.4,0.3-0.8,0.5-1.2c0.6-1.3,1.5-2.3,2.3-3.2c0.4-0.5,0.8-0.9,1.1-1.3
		c0.8-1.2,2.4-1.5,3.6-0.7c1.2,0.8,1.5,2.4,0.7,3.6c-0.5,0.7-1.1,1.4-1.6,2c-0.6,0.6-1.1,1.2-1.3,1.7c-0.2,0.3-0.3,0.7-0.4,1
		c-0.4,1-0.8,2-1.5,3.1l-4.9,7.7c-0.3,0.5-0.7,1-1.1,1.6c-0.3,0.4-0.6,0.8-0.8,1.2c0.7,0.3,1.3,0.9,1.6,1.6c0.3,0.2,0.9,0.7,2.3,1.4
		c0.3,0.1,0.4,0.2,0.6,0.3c0.6,0.4,1.3,0.8,1.9,1.2c3.8,2.4,7.7,4.8,11.3,7.7c0.5,0.4,1.1,0.9,1.6,1.3c1.2,1,2.4,2,3.7,2.8
		c0.9,0.6,1.8,1.2,2.8,1.7c0,0,0,0,0.1,0c0.3,0.2,0.5,0.4,0.8,0.5c0.1-0.2,0.2-0.4,0.3-0.5c0.2-0.3,0.3-0.6,0.4-0.8
		c0.8-1.2,1.6-2.5,2.4-3.6c1.5-2.3,2.9-4.4,4.1-6.7c0-0.1,0.1-0.2,0.2-0.4c2.6-5.7,3.8-7,5.2-7.5c0.7-0.3,1.5-0.2,2.2,0.1
		c1.2,0.6,1.8,1.9,1.4,3.2l-0.2,0.5c-0.3,0.8-0.9,1.4-1.7,1.7c-0.4,0.7-1.1,2-2.2,4.3c-0.1,0.3-0.2,0.4-0.2,0.5
		c-1.3,2.6-2.9,4.9-4.4,7.2c-0.8,1.1-1.6,2.3-2.3,3.5c-0.1,0.1-0.1,0.2-0.2,0.4C6.4,365.7,5,368.4,2.5,368.4z"></path>
	<path class="st0" d="M-13,355.6c-0.4,0-0.8-0.1-1.2-0.3c-1.3-0.7-1.8-2.2-1.1-3.5c1.1-2.1,2.5-3.9,3.8-5.6c0.6-0.8,1.2-1.5,1.7-2.3
		c0.3-0.4,0.5-0.8,0.8-1.2c0.5-0.7,1-1.5,1.6-2.2c0.8-1,1.7-2.1,2.7-3.6c0.8-1.2,2.5-1.4,3.6-0.6s1.4,2.5,0.6,3.6
		c-1.1,1.5-2,2.7-2.8,3.8c-0.4,0.6-0.9,1.2-1.3,1.8c-0.3,0.4-0.6,0.9-0.9,1.4c-0.6,0.8-1.2,1.6-1.8,2.4c-1.3,1.6-2.4,3.2-3.3,4.9
		C-11.2,355.1-12.1,355.6-13,355.6z"></path>
	<path class="st0" d="M-126.1,289c-2.2,0-4.6-0.4-6.8-1.2c-2-0.7-3.7-1.5-5.2-2.6c-0.2-0.2-0.5-0.3-0.7-0.5
		c-1.1-0.9-1.3-2.5-0.4-3.6c0.9-1.1,2.5-1.3,3.6-0.4c0.1,0.1,0.3,0.2,0.4,0.3c1.1,0.8,2.4,1.4,3.8,1.9c1.9,0.6,4,1,5.8,0.9
		c1.1-0.1,2.2-0.3,3.1-0.6c0.2-0.1,0.7-0.7,1-1l0.1-0.1c0.9-1,1.7-2.1,2.5-3.1c0.1-0.2,0.3-0.3,0.4-0.5c0.2-0.3,0.5-0.7,0.6-0.9
		c0-0.1,0.1-0.2,0.1-0.3c0.2-0.4,0.4-1,0.8-1.6c0.6-0.9,1.2-1.7,1.9-2.4c0.3-0.4,0.6-0.8,0.9-1.2l1.3-1.6c0.5-0.8,1-1.7,1.5-2.6
		c0,0,0.1-0.1,0.1-0.1c0.9-1.4,1.8-2.8,2.8-4.1c0.5-0.7,1-1.5,1.5-2.2c1.9-2.8,3.9-5.8,5.8-8.8c1.4-2.3,2.9-4.6,3.9-7.1
		c0.5-1.3,2-2,3.4-1.4c1.3,0.5,2,2,1.4,3.4c-1.1,2.8-2.8,5.5-4.3,7.9c-1.9,3.1-4,6.1-5.9,9c-0.5,0.8-1.1,1.6-1.6,2.3
		c-0.9,1.2-1.7,2.4-2.5,3.7c-0.5,1-1.1,2-1.7,2.9c-0.1,0.1-0.1,0.2-0.2,0.3l-1.4,1.7c-0.3,0.4-0.7,0.9-1,1.3c-0.6,0.7-1.1,1.4-1.6,2
		c-0.1,0.1-0.2,0.3-0.3,0.6c-0.1,0.1-0.1,0.3-0.2,0.4c-0.4,0.8-0.9,1.5-1.3,2.1c-0.1,0.1-0.2,0.3-0.3,0.4c-0.8,1.1-1.8,2.3-2.8,3.5
		l-0.1,0.1c-0.7,0.8-1.6,1.8-3,2.3c-1.4,0.5-3,0.8-4.7,0.9C-125.5,288.9-125.8,289-126.1,289z"></path>
	<path class="st0" d="M-132.8,304.2c-0.2,0-0.4,0-0.6-0.1c-0.5-0.1-1-0.4-1.4-0.7c0,0-0.1,0-0.1,0c-0.6,0-1.2,0-1.6-0.1l-0.2,0
		c-0.6-0.1-1.2-0.2-1.8-0.2c-0.4-0.1-0.8-0.1-1.3-0.2c-0.7-0.1-1.3-0.2-2-0.3c-0.2,0-0.4-0.1-0.5-0.1c-1.6-0.3-3.4-0.7-5.2-1.4
		c-2.7-1-4.2-3-4.3-5.7c0-0.7,0.1-1.3,0.2-1.8c0-0.3,0.1-0.6,0.1-0.8c0,0,0-0.1,0-0.2c0-0.3-0.1-0.6-0.1-1c0-0.9,0.3-1.7,0.4-2.2
		c0.1-0.2,0.1-0.3,0.1-0.5l0.1-0.4c0.2-0.8,0.4-1.6,0.7-2.5c0.2-0.4,0.3-1,0.4-1.6c0-0.3,0.1-0.5,0.1-0.7c0.7-3.7,1.4-7.4,1.9-10.2
		c0.4-2.5,0.9-5,1.5-7.5l0.1-0.3c0.3-1.2,0.6-2.5,0.9-3.7c0.3-1,0.6-1.9,1-2.8c0.1-0.3,0.2-0.6,0.3-0.9c0.5-1.4,1.1-2.8,1.5-3.9
		c1.9-4.7,4.1-9.4,6.7-13.9l0.3-0.5c0,0,0,0,0,0l0-0.1c0.4-0.7,0.8-1.3,1.2-2c0.2-0.3,0.3-0.6,0.5-0.9c0.1-0.3,0.3-0.6,0.5-0.9
		c1.3-2.4,3.3-4.6,4.7-6c1-1,2.7-1,3.7,0c1,1,1,2.7,0,3.7c-1.2,1.2-2.9,3-3.8,4.8c-0.1,0.2-0.2,0.5-0.3,0.7c-0.2,0.4-0.5,1-0.8,1.5
		c-0.4,0.6-0.8,1.3-1.2,1.9l-0.3,0.6c-2.5,4.2-4.6,8.7-6.4,13.2c-0.5,1.1-1,2.5-1.5,3.8c-0.1,0.3-0.2,0.7-0.4,1
		c-0.3,0.8-0.6,1.6-0.8,2.4c-0.3,1.1-0.6,2.3-0.9,3.5l-0.1,0.3c-0.6,2.4-1.1,4.9-1.5,7.2c-0.5,2.8-1.1,6.5-1.9,10.3
		c0,0.2-0.1,0.4-0.1,0.6c-0.1,0.7-0.3,1.6-0.6,2.4c-0.2,0.6-0.4,1.3-0.6,2l-0.1,0.5c-0.1,0.3-0.2,0.6-0.3,0.8
		c-0.1,0.2-0.1,0.4-0.2,0.5c0,0.1,0,0.2,0,0.3c0,0.3,0.1,0.8,0.1,1.3c0,0.5-0.1,0.9-0.2,1.3c-0.1,0.4-0.1,0.7-0.1,0.9
		c0,0.3,0,0.6,0.9,0.9c1.4,0.5,3,0.9,4.3,1.1c0.2,0,0.4,0.1,0.6,0.1c0.6,0.1,1.1,0.2,1.6,0.3c0.5,0.1,0.9,0.1,1.4,0.2
		c0.5,0.1,1.1,0.2,1.6,0.2c0.1,0,0.2,0,0.3,0c0.2,0,0.5,0.1,0.6,0.1c0.6,0,2.1-0.2,3.5,0.8c0.3,0.2,0.5,0.4,0.6,0.6
		c0.7,0.6,1.1,1.6,0.9,2.6C-130.5,303.3-131.6,304.2-132.8,304.2z"></path>
	<path class="st0" d="M-126.3,256.5c-1.4,0-2.6-1.1-2.6-2.5l-0.1-2.7c0-1.4,1.1-2.6,2.5-2.7c1.4,0,2.6,1.1,2.7,2.5l0.1,2.7
		C-123.6,255.2-124.8,256.4-126.3,256.5C-126.2,256.5-126.2,256.5-126.3,256.5z"></path>
	<path class="st0" d="M-128.5,264.9c-0.7,0-1.3-0.3-1.8-0.8c-0.5-0.5-0.8-1.1-0.8-1.8c0-0.7,0.3-1.3,0.8-1.8
		c0.5-0.5,1.2-0.8,1.8-0.8c0.7,0,1.4,0.3,1.8,0.8c0.5,0.5,0.8,1.2,0.8,1.8c0,0.7-0.3,1.4-0.8,1.8
		C-127.1,264.7-127.8,264.9-128.5,264.9z"></path>
	<path class="st0" d="M-124.8,278.1c-0.7,0-1.4-0.3-1.8-0.8c-0.5-0.5-0.8-1.2-0.8-1.8c0-0.7,0.3-1.4,0.8-1.8
		c0.5-0.5,1.2-0.8,1.8-0.8c0.7,0,1.4,0.3,1.8,0.8c0.5,0.5,0.8,1.1,0.8,1.8c0,0.7-0.3,1.3-0.8,1.8
		C-123.4,277.8-124.1,278.1-124.8,278.1z"></path>
	<path class="st0" d="M-127.9,247.7c-0.7,0-1.3-0.3-1.8-0.8c-0.5-0.5-0.8-1.2-0.8-1.8c0-0.7,0.3-1.3,0.8-1.8
		c0.5-0.5,1.2-0.8,1.8-0.8s1.4,0.3,1.8,0.8c0.5,0.5,0.8,1.2,0.8,1.8c0,0.7-0.3,1.4-0.8,1.8C-126.6,247.4-127.2,247.7-127.9,247.7z"></path>
	<path class="st0" d="M-116,260.4c-0.7,0-1.4-0.3-1.8-0.8c-0.5-0.5-0.8-1.2-0.8-1.8s0.3-1.4,0.8-1.8c0.5-0.5,1.2-0.8,1.8-0.8
		c0.7,0,1.4,0.3,1.8,0.8c0.5,0.5,0.8,1.2,0.8,1.8s-0.3,1.4-0.8,1.8C-114.6,260.1-115.3,260.4-116,260.4z"></path>
	<path class="st0" d="M-131.4,312.5c-4.2,0-7.7-1.4-10.1-3.9c-1-1-0.9-2.7,0.1-3.7c1-1,2.7-0.9,3.7,0.1c1.4,1.5,3.6,2.3,6.3,2.3
		c0,0,0.1,0,0.1,0c4.2,0,8.6-2,11.3-4.9l0.8-0.8c1.5-1.6,3.7-4,3.6-4.7c0-1.4,1.1-2.6,2.5-2.6c0,0,0,0,0.1,0c1.4,0,2.6,1.1,2.6,2.5
		c0.1,2.9-2.2,5.3-5,8.4l-0.7,0.8c-3.7,4-9.5,6.6-15.1,6.6C-131.3,312.5-131.3,312.5-131.4,312.5z"></path>
	<path class="st0" d="M-127.1,336.8c-1,0-1.9-0.6-2.4-1.5c-0.6-1.3,0-2.8,1.3-3.4c1-0.5,2-0.8,3-1.2c1.2-0.5,2.3-0.9,3.3-1.4
		c0.6-0.3,1.2-0.6,1.8-1c0.6-0.3,1.2-0.7,1.8-1c1.1-0.5,2.1-0.9,3.1-1.3c0.8-0.3,1.5-0.5,2.2-0.8c0.4-0.2,1.3-0.6,0.9-2.5l0-0.2
		c-0.1-0.6-0.3-1.2-0.2-2.1c0.1-1.4,1.3-2.5,2.7-2.4c1.4,0,2.5,1.2,2.5,2.6l0,0.3c0,0,0,0,0,0c0,0.1,0.1,0.3,0.1,0.6l0.1,0.3
		c0.7,3.6-0.7,6.8-3.9,8.2c-0.9,0.4-1.8,0.7-2.6,1c-0.9,0.3-1.8,0.6-2.5,1c-0.6,0.3-1.1,0.6-1.7,0.9c-0.7,0.4-1.3,0.7-2,1.1
		c-1.2,0.6-2.5,1.1-3.7,1.6c-0.9,0.4-1.8,0.7-2.7,1.1C-126.4,336.7-126.7,336.8-127.1,336.8z"></path>
	<path class="st0" d="M-117.6,324.2c-1.1,0-2.2-0.8-2.5-1.9c-0.4-1.4,0.5-2.8,1.9-3.2c1.5-0.4,3.2-0.9,4.8-1.4c1-0.4,2-0.6,3-0.8
		l0.2-0.1c0.2,0,0.4-0.1,0.6-0.2c0.3-0.1,0.6-0.2,0.9-0.3c0-0.4,0-0.9,0-1.4c0-0.5-0.1-1-0.1-1.5c0-0.7,0.2-1.3,0.3-1.8
		c0-0.1,0.1-0.2,0.1-0.3c-0.1-0.5-0.5-1.2-0.8-1.8c-0.1-0.2-0.2-0.4-0.3-0.6c-0.2-0.4-0.4-0.8-0.6-1.2c-0.4-0.7-0.8-1.5-1.1-2.2
		c-2.7-6-7-11.9-12.3-17.2c-1-1-1-2.6,0-3.7c1-1,2.6-1,3.7,0c5.8,5.7,10.4,12.1,13.4,18.7c0.3,0.7,0.6,1.3,1,2
		c0.2,0.4,0.4,0.8,0.6,1.2c0.1,0.2,0.2,0.3,0.3,0.5c0.5,1,1.2,2.3,1.3,3.7c0.1,0.9-0.1,1.7-0.3,2.3c0,0.1-0.1,0.3-0.1,0.4
		c0,0.3,0,0.6,0.1,1c0.1,0.9,0.2,2.1-0.2,3.3c0,0.1,0,0.2-0.1,0.2l0,0.2c-0.2,0.6-0.4,1.2-0.7,1.7c-0.9,1.2-2.2,1.3-2.6,1.3l0,0
		c-0.2,0-0.4,0.1-0.6,0.2c-0.3,0.1-0.8,0.3-1.3,0.4l-0.2,0.1c-0.9,0.2-1.6,0.4-2.4,0.6c-1.8,0.7-3.7,1.2-5.3,1.6
		C-117.2,324.1-117.4,324.2-117.6,324.2z"></path>
	<path class="st0" d="M-131.6,294.8c-1.4,0-2.5-1.1-2.6-2.5c-0.1-1.4,1.1-2.6,2.5-2.7c0.8,0,1.3-0.1,1.8-0.2l0.2,0
		c0.4-0.1,0.7-0.2,0.9-0.3c1.1-0.6,2.2-1,3.3-1c0,0,0.1,0,0.2-0.1c-0.5-0.6-0.7-1.5-0.5-2.3c0.2-0.8,0.8-1.5,1.6-1.8
		c1.2-0.5,2.5,0,3.2,1.1c0.1,0.1,0.1,0.3,0.2,0.4c0.6,1,0.9,2,0.8,3.1c-0.1,1.3-0.8,2.5-2,3.4c-1.1,0.9-2.3,1.3-3.4,1.4
		c-0.2,0-0.5,0.1-0.8,0.3c-0.9,0.5-1.7,0.7-2.4,0.9l-0.1,0C-129.5,294.7-130.4,294.8-131.6,294.8
		C-131.5,294.8-131.6,294.8-131.6,294.8z"></path>
	<path class="st0" d="M-122.3,270.5c-1,0-2-0.6-2.4-1.6c-0.5-1.3,0.1-2.8,1.4-3.4l2.4-1c1.3-0.5,2.8,0.1,3.4,1.4
		c0.5,1.3-0.1,2.8-1.4,3.4l-2.4,1C-121.6,270.5-122,270.5-122.3,270.5z"></path>
	<path class="st0" d="M-110.3,262.7c-0.2,0-0.4,0-0.5-0.1c-1.4-0.3-2.3-1.7-2-3.1l0.6-2.6c0.3-1.4,1.7-2.3,3.1-2
		c1.4,0.3,2.3,1.7,2,3.1l-0.6,2.6C-108.1,261.9-109.1,262.7-110.3,262.7z"></path>
	<path class="st0" d="M-137.4,269.4c0,0-0.1,0-0.1,0c-1.4-0.1-2.5-1.3-2.5-2.7l0.1-2.6c0.1-1.4,1.3-2.5,2.7-2.5
		c1.4,0.1,2.5,1.3,2.5,2.7l-0.1,2.6C-134.9,268.3-136.1,269.4-137.4,269.4z"></path>
	<path class="st0" d="M-129.8,325.4c-0.2,0-0.4,0-0.5-0.1c-0.8-0.2-1.4-0.6-1.8-1.2l-0.6-0.6c-0.4-0.1-0.7-0.2-1.1-0.3
		c-0.1,0-0.2-0.1-0.3-0.1c-0.8-0.2-1.9-0.6-2.7-1.4c-1.1-1.1-1.1-2.5-1.1-3.3c0-0.1,0-0.2,0-0.3c-0.1-0.3-0.3-0.6-0.5-1
		c-0.1-0.1-0.1-0.3-0.2-0.4c-0.9-1.7-1.4-3.4-1.9-5.1l-0.3-0.9c-0.3-1-0.6-1.9-0.9-2.7c-0.2-0.5-0.5-1.1-0.8-1.6
		c-0.5-1.1-1.1-2.1-1.5-3.4c-0.2-0.5-0.3-0.8-0.6-1.2c-0.1-0.1-0.2-0.3-0.3-0.4c-0.5-0.6-0.8-1.5-0.5-2.4c0.4-1.4,1.8-2.2,3.2-1.8
		c0.8,0.2,1.5,0.8,1.9,1.7c0.5,0.7,0.9,1.5,1.2,2.4c0.3,0.9,0.8,1.7,1.2,2.7c0.3,0.6,0.6,1.2,0.9,1.8c0.5,1.2,0.9,2.3,1.2,3.4
		l0.3,0.9c0.4,1.5,0.9,2.9,1.5,4.2c0.1,0.1,0.1,0.2,0.2,0.3c0.3,0.6,0.7,1.2,0.9,2c0.2,0.5,0.2,1,0.2,1.4c0,0,0,0,0,0
		c0.2,0.1,0.4,0.1,0.5,0.2c0.7,0.2,1.5,0.4,2.3,0.6c0.6,0.1,1.2,0.2,1.8,0.4c1.2,0.3,2,1.4,2,2.6c0,1.6-1.2,2.4-2,2.8
		C-128.4,325.1-129.1,325.4-129.8,325.4z"></path>
	<path class="st0" d="M-135.2,346.1c-1.3,0-2.7-0.1-4.1-0.4c-0.3-0.1-0.6-0.2-1-0.2c-1.5-0.3-3.5-0.8-4.9-1.9
		c-2.1-1.8-1.8-4.3-1.6-5.5c0.1-0.9,0.2-1.8,0.3-2.8c0.2-3,0.5-6.1,1.7-9c0.3-0.7,0.5-1.3,0.7-2.1l0.1-0.4c0.3-1.1,0.9-1.9,1.3-2.5
		c0.1-0.1,0.2-0.2,0.3-0.4c0.7-1,1.5-1.8,2.3-2.6c0.2-0.2,0.4-0.3,0.5-0.5l0.1-0.1c1.1-1.1,2.7-2.6,4.8-2.9c1.4-0.2,2.7,0.9,2.9,2.3
		c0.2,1.4-0.9,2.7-2.3,2.9c-0.4,0.1-1.3,1-1.7,1.4l-0.1,0.1c-0.2,0.2-0.4,0.4-0.6,0.6c-0.6,0.6-1.2,1.2-1.6,1.8
		c-0.1,0.2-0.2,0.3-0.3,0.5c-0.3,0.4-0.5,0.6-0.5,0.8l-0.1,0.4c-0.2,0.9-0.5,1.7-0.9,2.7c-0.9,2.1-1.1,4.7-1.3,7.4
		c-0.1,1-0.2,2-0.3,3c-0.1,0.5-0.1,0.8-0.1,1c0.5,0.3,1.7,0.6,2.5,0.8c0.4,0.1,0.8,0.2,1.2,0.3c1.2,0.3,2.5,0.3,4,0.3
		c0.3,0,0.6,0,0.8,0c0.2,0,0.5,0,0.7,0c1.1,0,1.9,0,2.7-0.3c0.5-0.2,1.1-0.4,1.6-0.7c0.2-0.1,0.5-0.2,0.8-0.3
		c0.9-0.4,1.8-0.5,2.4-0.5c0.2,0,0.5,0,0.7-0.1c0.2,0,0.3-0.1,0.4-0.1c0.5-0.1,1.1-0.2,1.9-0.2c1.3,0,2.4,0.5,3.2,0.8
		c0.5,0.2,1.1,0.5,1.3,0.4c0.2,0,0.4-0.1,0.6-0.2c0.5-0.2,1.1-0.3,1.8-0.4c0.9-0.1,1.8,0,2.5,0c0.4,0,0.8,0.1,1.2,0.1c0,0,0,0,0,0
		c0.1,0,0.3,0,0.4,0c-0.1-0.1-0.2-0.2-0.3-0.3c-1.2-1-3.6-3.6-3.9-6.5c-0.1-1.4,0.3-2.7,1.1-3.7c0.9-1.1,2.6-1.2,3.7-0.2
		c1,0.9,1.2,2.4,0.4,3.5c0.1,0.6,1,2.1,2,2.9c0,0,4.3,4,3.3,7.2c-0.4,1.4-1.7,2.2-3.2,2.3c-0.8,0-1.6,0-2.3,0c-0.4,0-0.8,0-1.1,0
		c0,0,0,0,0,0c-0.6,0-1.1,0-1.6-0.1c-0.6,0-1.1-0.1-1.6,0c-0.2,0-0.4,0.1-0.7,0.2c-0.3,0.1-0.7,0.2-1.1,0.3
		c-1.8,0.4-3.3-0.2-4.4-0.7c-0.5-0.2-1-0.4-1.3-0.4c-0.2,0-0.3,0-0.7,0.1c-0.2,0-0.4,0.1-0.7,0.1c-0.4,0.1-0.8,0.1-1.2,0.1
		c-0.4,0-0.6,0.1-0.8,0.1c-0.2,0.1-0.5,0.2-0.7,0.3c-0.6,0.3-1.3,0.6-2,0.8c-1.7,0.6-3.1,0.6-4.4,0.6c-0.2,0-0.4,0-0.7,0
		c-0.3,0-0.5,0-0.8,0C-134.3,346.1-134.7,346.1-135.2,346.1z"></path>
	<path class="st0" d="M-104.1,253.7c-1.7,0-3.4-0.2-5.1-0.5c-1.1-0.2-2.1-0.5-3.1-0.8c-0.4-0.1-0.7-0.3-1-0.5c0,0,0,0-0.1,0
		c-0.1,0-0.1,0-0.2-0.1c-0.4-0.1-1-0.3-1.5-0.7c-0.2-0.1-0.4-0.3-0.6-0.5c-0.1-0.1-0.3-0.3-0.4-0.3c-0.1-0.1-0.4-0.2-0.7-0.3
		c-0.2-0.1-0.5-0.2-0.7-0.2c-0.1,0-0.1,0-0.2-0.1c-0.3-0.1-0.7-0.2-1.1-0.5c-0.3-0.2-0.5-0.4-0.7-0.5l-0.1-0.1
		c-0.4-0.3-0.8-0.6-1.2-1c-4.8-4-9.8-8.7-9.3-13.8c0.2-2.6,1.8-4.7,4.7-6.4c3.2-1.8,8-2.2,13.5-0.9c1.9,0.5,3.9,1.1,5.8,1.9
		c0.9,0.4,1.9,0.8,2.8,1.3c0.1,0.1,0.3,0.1,0.5,0.2c0.5,0.2,1,0.4,1.6,0.8c0.1,0.1,0.3,0.2,0.4,0.3c0.3,0.2,0.6,0.4,0.8,0.6l0.2,0.1
		c0.8,0.5,1.7,1,2.5,1.9c0.4,0.4,0.7,0.8,0.9,1.2c0.2,0.3,0.4,0.5,0.5,0.7c0.1,0.1,0.3,0.2,0.4,0.4c0.2,0.2,0.5,0.4,0.8,0.7
		c0.9,0.9,1.5,2,1.8,2.7c1.2,2.6,1.3,5.5,0.2,8.1c-1.3,3.1-4.8,5.4-9,5.9c-0.5,0.1-1,0.1-1.5,0.1
		C-103.3,253.6-103.7,253.7-104.1,253.7z M-110.5,247.4c0.7,0.2,1.5,0.4,2.4,0.6c1.7,0.4,3.3,0.5,4.9,0.4c0.4,0,0.7-0.1,1.1-0.1
		c2.3-0.3,4.3-1.4,4.8-2.8c0.5-1.2,0.4-2.6-0.2-3.9c-0.3-0.6-0.5-1-0.8-1.2c-0.1-0.1-0.2-0.2-0.4-0.4c-0.3-0.2-0.5-0.4-0.8-0.8
		c-0.5-0.5-0.8-1-1.1-1.4c-0.2-0.3-0.3-0.5-0.5-0.7c-0.3-0.3-0.8-0.6-1.3-1l-0.2-0.1c-0.4-0.3-0.8-0.6-1.2-0.8
		c-0.1-0.1-0.3-0.2-0.4-0.3c-0.1,0-0.3-0.2-0.5-0.2c-0.3-0.1-0.6-0.2-0.9-0.4c-0.8-0.4-1.6-0.8-2.4-1.1c-1.6-0.7-3.3-1.2-5-1.6l0,0
		c-4.1-1-7.8-0.8-9.8,0.3c-1.3,0.7-2,1.5-2.1,2.3c-0.3,2.8,5.4,7.6,7.5,9.4c0.3,0.3,0.6,0.5,1,0.7c0.1,0.1,0.2,0.2,0.3,0.2
		c0,0,0.1,0,0.1,0c0.1,0,0.3,0.1,0.4,0.1c0.1,0.1,0.3,0.1,0.5,0.2c0.5,0.1,1,0.3,1.6,0.6c0.5,0.3,0.9,0.6,1.2,0.8
		c0.1,0.1,0.2,0.2,0.3,0.2c0.1,0,0.2,0.1,0.3,0.1c0.1,0,0.3,0.1,0.4,0.1C-111,247.1-110.7,247.3-110.5,247.4
		C-110.5,247.4-110.5,247.4-110.5,247.4z"></path>
	<path class="st0" d="M-95.1,321.3C-95.1,321.3-95.2,321.3-95.1,321.3c-1.5-0.1-2.6-1.2-2.6-2.7c0-0.5,0.1-1.1,0.2-1.6
		c0.2-0.9,0.6-1.6,0.9-2.2c0.1-0.2,0.2-0.4,0.3-0.6c0.3-0.7,0.6-1.4,0.7-2c0.3-1.1,0.4-2.2,0.3-3.2c-0.1-0.5-0.2-1-0.4-1.4
		c-0.1-0.2-0.3-0.5-0.6-0.9c-0.1-0.1-0.2-0.2-0.3-0.4c-0.9-1.2-1.5-2.6-1.9-4.1c-0.6-2.6-0.5-5.3-0.3-7.4c0.2-2,0.5-4.1,0.9-6.1
		c0.2-1.1,0.1-2.4-0.2-3.8c-0.4-1.4,0.5-2.8,1.9-3.2c1.4-0.4,2.8,0.5,3.2,1.9c0.6,2.2,0.7,4.2,0.3,6.1c-0.4,1.8-0.6,3.7-0.8,5.6
		c-0.2,1.7-0.3,3.8,0.1,5.7c0.2,0.9,0.5,1.6,1,2.2c0.1,0.1,0.2,0.2,0.2,0.3c0.4,0.5,0.9,1.2,1.3,2.1c0.3,0.9,0.6,1.8,0.7,2.8
		c0.2,1.7,0.1,3.5-0.4,5.2c-0.3,0.9-0.6,1.8-1,2.7c-0.1,0.3-0.3,0.6-0.4,0.9c-0.2,0.4-0.4,0.8-0.5,1.1c0,0.2-0.1,0.4-0.1,0.6
		C-92.6,320.2-93.7,321.3-95.1,321.3z"></path>
	<path class="st0" d="M-113.3,350.8c-0.7,0-1.3-0.3-1.8-0.8c-0.5-0.5-0.8-1.1-0.8-1.8c0-0.7,0.3-1.3,0.8-1.8
		c0.5-0.5,1.2-0.8,1.8-0.8c0.7,0,1.4,0.3,1.8,0.8c0.5,0.5,0.8,1.2,0.8,1.8c0,0.7-0.3,1.4-0.8,1.8
		C-111.9,350.5-112.6,350.8-113.3,350.8z"></path>
	<path class="st0" d="M-138.6,361.8c-0.7,0-1.3-0.3-1.8-0.8c-0.5-0.5-0.8-1.1-0.8-1.8c0-0.7,0.3-1.3,0.8-1.8
		c0.5-0.5,1.2-0.8,1.8-0.8s1.4,0.3,1.8,0.8c0.5,0.5,0.8,1.2,0.8,1.8c0,0.7-0.3,1.4-0.8,1.8C-137.2,361.6-137.9,361.8-138.6,361.8z"></path>
	<path class="st0" d="M-101.1,361.8c-0.7,0-1.4-0.3-1.8-0.8c-0.5-0.5-0.8-1.1-0.8-1.8c0-0.7,0.3-1.3,0.8-1.8
		c0.5-0.5,1.1-0.8,1.8-0.8c0.7,0,1.3,0.3,1.8,0.8c0.5,0.5,0.8,1.2,0.8,1.8c0,0.7-0.3,1.4-0.8,1.8
		C-99.7,361.6-100.4,361.8-101.1,361.8z"></path>
	<path class="st0" d="M-150.3,344.2c-0.7,0-1.4-0.3-1.8-0.8c-0.5-0.5-0.8-1.2-0.8-1.8s0.3-1.4,0.8-1.8c0.5-0.5,1.1-0.8,1.8-0.8
		c0.7,0,1.3,0.3,1.8,0.8c0.5,0.5,0.8,1.2,0.8,1.8s-0.3,1.4-0.8,1.8C-149,344-149.7,344.2-150.3,344.2z"></path>
	<path class="st0" d="M-96.7,338.4c-0.7,0-1.4-0.3-1.8-0.8c-0.5-0.5-0.8-1.1-0.8-1.8c0-0.7,0.3-1.3,0.8-1.8c0.5-0.5,1.2-0.8,1.8-0.8
		c0.7,0,1.4,0.3,1.8,0.8c0.5,0.5,0.8,1.2,0.8,1.8c0,0.7-0.3,1.4-0.8,1.8C-95.3,338.1-96,338.4-96.7,338.4z"></path>
	<path class="st0" d="M-120.2,347.2c-0.7,0-1.4-0.3-1.8-0.8c-0.5-0.5-0.8-1.2-0.8-1.8c0-0.7,0.3-1.4,0.8-1.8
		c0.5-0.5,1.1-0.8,1.8-0.8c0.7,0,1.3,0.3,1.8,0.8c0.5,0.5,0.8,1.1,0.8,1.8c0,0.7-0.3,1.3-0.8,1.8
		C-118.8,346.9-119.5,347.2-120.2,347.2z"></path>
	<path class="st0" d="M-169.5,355c-0.7,0-1.4-0.3-1.8-0.8c-0.5-0.5-0.8-1.2-0.8-1.8s0.3-1.4,0.8-1.8c0.5-0.5,1.1-0.8,1.8-0.8
		c0.7,0,1.4,0.3,1.8,0.8c0.5,0.5,0.8,1.2,0.8,1.8s-0.3,1.4-0.8,1.8C-168.2,354.7-168.8,355-169.5,355z"></path>
	<path class="st0" d="M-70.8,356.9c-0.7,0-1.3-0.3-1.8-0.8c-0.5-0.5-0.8-1.2-0.8-1.8c0-0.7,0.3-1.3,0.8-1.8c0.5-0.5,1.2-0.8,1.8-0.8
		c0.7,0,1.4,0.3,1.8,0.8c0.5,0.5,0.8,1.2,0.8,1.8c0,0.7-0.3,1.4-0.8,1.8C-69.4,356.6-70.1,356.9-70.8,356.9z"></path>
	<path class="st0" d="M-153.4,365.5c-0.7,0-1.4-0.3-1.8-0.8c-0.5-0.5-0.8-1.2-0.8-1.8c0-0.7,0.3-1.4,0.8-1.8
		c0.5-0.5,1.2-0.8,1.8-0.8c0.7,0,1.4,0.3,1.8,0.8c0.5,0.5,0.8,1.1,0.8,1.8c0,0.7-0.3,1.3-0.8,1.8
		C-152,365.2-152.7,365.5-153.4,365.5z"></path>
	<path class="st0" d="M-115.1,356.9c-1.4,0-2.5-1.1-2.6-2.5c-0.1-1.4,1-2.7,2.4-2.7l2.6-0.1c1.4-0.1,2.7,1,2.7,2.4
		c0.1,1.4-1,2.7-2.4,2.7l-2.6,0.1C-115,356.9-115,356.9-115.1,356.9z"></path>
	<path class="st0" d="M-105.7,346.7c-1.1,0-2.1-0.7-2.5-1.8c-0.4-1.4,0.4-2.8,1.7-3.2l2.5-0.8c1.4-0.4,2.8,0.4,3.2,1.7
		c0.4,1.4-0.4,2.8-1.7,3.2l-2.5,0.8C-105.2,346.7-105.5,346.7-105.7,346.7z"></path>
	<path class="st0" d="M-124.6,353.1c-1.2,0-2.2-0.8-2.5-2c-0.3-1.4,0.5-2.8,1.9-3.1l2.6-0.6c1.4-0.3,2.8,0.5,3.1,1.9
		c0.3,1.4-0.5,2.8-1.9,3.1l-2.6,0.6C-124.2,353.1-124.4,353.1-124.6,353.1z"></path>
	<path class="st0" d="M-137.7,350.8c-0.1,0-0.1,0-0.2,0l-2.6-0.2c-1.4-0.1-2.5-1.3-2.4-2.8c0.1-1.4,1.3-2.5,2.8-2.4l2.6,0.2
		c1.4,0.1,2.5,1.3,2.4,2.8C-135.2,349.8-136.3,350.8-137.7,350.8z"></path>
	<path class="st0" d="M-93.7,354.1c-1.4,0-2.5-1.1-2.6-2.5c-0.1-1.4,1-2.7,2.4-2.7l2.6-0.1c1.4-0.1,2.7,1,2.7,2.4
		c0.1,1.4-1,2.7-2.4,2.7l-2.6,0.1C-93.6,354-93.6,354.1-93.7,354.1z"></path>
	<path class="st0" d="M-84.2,295.9c-0.9,0-1.7-0.4-2.2-1.2c-1.1-1.8-0.9-3.8-0.7-5.3c0-0.2,0-0.4,0.1-0.6c0.1-0.5,0.1-1.1,0.2-1.6
		c0.1-1.2,0.2-2.5,0.4-3.8c0.1-0.5,0.1-1,0.1-1.8c0-0.3-0.1-0.7-0.1-1.1c0-0.2-0.1-0.4-0.1-0.6l-0.6-3.7c-0.2-1.5-0.2-2.9-0.1-4.1
		c0.1-1.8,0.5-3.7,1.3-5.4c0.6-1.3,2.1-1.9,3.4-1.3c1.3,0.6,1.9,2.1,1.3,3.4c-0.5,1.1-0.8,2.3-0.8,3.5c-0.1,1.3-0.1,2.2,0.1,3.2
		l0.6,3.7c0,0.2,0.1,0.3,0.1,0.5c0.1,0.6,0.2,1.3,0.2,2c0,0.9,0,1.7-0.1,2.4c-0.1,1.2-0.3,2.4-0.4,3.6c-0.1,0.6-0.1,1.1-0.2,1.7
		c0,0.2,0,0.4-0.1,0.7c-0.1,0.5-0.2,1.7,0,1.9c0.8,1.2,0.4,2.8-0.8,3.6C-83.2,295.7-83.7,295.9-84.2,295.9z"></path>
	<path class="st0" d="M-177,216.9c-1,0-1.9-0.2-2.7-0.5c-0.3-0.1-0.6-0.2-0.8-0.2c-1.1-0.2-2.3-0.5-3.5-0.7
		c-5.3-0.8-10-3.6-13.4-8.3c-3-4-4.9-9.1-5.5-14.5c0-0.2,0-0.3-0.1-0.5c-0.1-1.1-0.3-2.4,0-3.8c0.1-0.3,0.1-0.5,0.2-0.7c0,0,0,0,0,0
		c0-0.1,0-0.1,0-0.2c0-0.3-0.1-0.6-0.1-0.9c-0.2-2.2,0.7-3.6,1.5-4.6c0.2-0.3,0.4-0.5,0.6-0.8c0.3-0.4,0.7-0.9,1.1-1.3
		c0.2-0.2,0.3-0.3,0.4-0.5c0.4-0.6,1-1.2,1.7-1.8l0.1-0.1c0.1,0,0.1-0.1,0.2-0.1c0,0,0.1-0.1,0.2-0.2c0.1-0.1,0.2-0.2,0.3-0.4
		c2.3-2.9,6.4-3.9,11.9-2.9c0.5,0.1,0.9,0.2,1.3,0.3c0.4,0.1,0.7,0.2,1,0.2c0.1,0,0.2,0,0.3,0c0.5,0.1,1.2,0.1,1.9,0.4
		c0.6,0.2,1.1,0.5,1.4,0.7c0.7,0.4,1.2,1,1.7,1.6c0.2,0.3,0.6,0.7,0.9,1.1c0.5,0.5,1.1,1.1,1.6,1.9c0.8,1.2,0.5,2.8-0.7,3.6
		c-1.2,0.8-2.8,0.5-3.6-0.7c-0.2-0.4-0.6-0.8-1-1.2c-0.4-0.5-0.9-1-1.4-1.6c-0.1-0.1-0.2-0.2-0.3-0.3c-0.1-0.1-0.3-0.2-0.5-0.3
		c-0.1,0-0.4-0.1-0.7-0.1c-0.1,0-0.3,0-0.4,0c-0.6-0.1-1.1-0.2-1.6-0.4c-0.3-0.1-0.6-0.2-0.8-0.2c-2-0.4-5.6-0.7-7,1.1
		c0,0.1-0.1,0.1-0.1,0.2c-0.2,0.2-0.3,0.5-0.6,0.7c-0.2,0.2-0.5,0.4-0.6,0.6l-0.1,0.1c-0.3,0.2-0.6,0.6-0.9,1
		c-0.2,0.2-0.4,0.4-0.5,0.7c-0.3,0.3-0.6,0.7-0.8,1.1c-0.2,0.3-0.5,0.6-0.7,0.9c-0.4,0.5-0.4,0.5-0.3,0.9c0,0.2,0,0.4,0.1,0.6
		c0,0.1,0,0.3,0.1,0.4c0.1,1-0.1,1.7-0.2,2.1c0,0.1-0.1,0.2-0.1,0.3c-0.1,0.5,0,1.3,0.1,2c0,0.2,0,0.4,0.1,0.5
		c0.9,8.1,5.7,16.9,14.5,18.2c1.3,0.2,2.6,0.5,3.8,0.7c0.4,0.1,0.8,0.2,1.1,0.3c0.6,0.2,1.2,0.3,1.5,0.3c0.7-0.1,1.6-0.9,2.3-1.5
		l0.3-0.2c0.5-0.4,1.1-0.8,1.7-1.2c2.5-1.6,4.1-4.2,4.6-7.4c0.2-1.4,1.5-2.4,2.9-2.2c1.4,0.2,2.4,1.5,2.2,2.9
		c-0.7,4.6-3.2,8.5-6.9,11c-0.5,0.3-0.9,0.6-1.3,0.9l-0.3,0.2c-1.2,0.9-2.6,2.1-4.5,2.5C-176.1,216.9-176.6,216.9-177,216.9z"></path>
	<path class="st0" d="M-145,197.8c-1,0-1.9-0.5-2.3-1.4c-0.4-0.9-0.5-1.7-0.6-2.5c0-0.2-0.1-0.4-0.1-0.6c-0.7-3.7-1-7.4-1.2-11
		c-0.2-4.3-0.5-8.3-1.5-12.1c0,0,0,0,0-0.1c-0.1-0.2-0.3-0.5-0.4-1c-0.3-1.2-0.5-2.3-0.6-3.4c-0.1-0.7-0.2-1.4-0.3-2
		c-0.3-1.4,0.6-2.8,2-3c1.4-0.3,2.8,0.6,3,2c0.2,0.8,0.3,1.5,0.4,2.3c0.2,1,0.3,2,0.5,2.9c0,0,0,0,0,0.1c0.1,0.2,0.2,0.5,0.4,0.9
		c1.2,4.4,1.5,8.9,1.7,13.3c0.2,3.5,0.4,6.9,1,10.1c0,0,0.1,0,0.1,0c1.8-0.3,3.5-0.8,5.4-1.2c1.8-0.5,3.7-0.9,5.7-1.3
		c0.2,0,0.3-0.1,0.5-0.1c0.3-0.1,0.7-0.1,1.1-0.2c0.5-0.1,0.9,0,1.2,0c0,0,0,0,0,0c0,0,0,0,0.1,0c1.3-0.3,2.7,0.6,3,1.9
		c0.4,1.3-0.4,2.7-1.7,3.1c-0.3,0.1-0.5,0.1-0.8,0.2c-0.1,0-0.1,0-0.2,0c-0.4,0.1-0.7,0.1-1,0c-0.2,0-0.4,0.1-0.6,0.1
		c-0.2,0-0.4,0.1-0.5,0.1c-1.8,0.3-3.6,0.8-5.4,1.3c-1.8,0.5-3.7,0.9-5.6,1.3c-0.2,0-0.5,0.1-0.7,0.2
		C-143.2,197.6-144.1,197.8-145,197.8C-144.9,197.8-145,197.8-145,197.8z"></path>
	<path class="st0" d="M-96.8,198.8c-0.4,0-0.8,0-1.3-0.1c-0.2,0-0.4-0.1-0.6-0.1c-1.3-0.2-3.2-0.5-4.7-2.2c-1.5-1.8-2.7-3.7-3.4-5.8
		l-0.1-0.3c-0.3-0.8-0.6-1.7-0.8-2.6c-1.4-7-0.1-13.7,1.2-20.1c0.3-1.4,0.6-2.9,0.8-4.4c0.1-0.6,0.3-1,0.5-1.3
		c0.2-1.3,1.4-2.2,2.7-2.2c1.3,0.1,2.4,1.1,2.4,2.5c0,1-0.3,1.7-0.5,2.1c-0.3,1.4-0.5,2.9-0.8,4.3c-1.3,6.2-2.4,12.1-1.2,18.1
		c0.1,0.6,0.4,1.2,0.6,1.9l0.1,0.3c0.6,1.5,1.4,2.9,2.5,4.2c0.2,0.2,0.4,0.3,1.5,0.5c0.2,0,0.5,0.1,0.8,0.1c0.3,0.1,0.4,0,1,0
		c0.1,0,0.2,0,0.4-0.1c0.2,0,0.4,0,0.7-0.1c0.5,0,1.1-0.1,1.4-0.2c0.1,0,0.4-0.3,0.6-0.5c0.2-0.2,0.4-0.4,0.7-0.6c5-3.8,5-10,5-16.5
		c0-1.1,0-2.2,0-3.2c0-0.3,0-0.7,0-1c0-0.5-0.1-1-0.1-1.5c0-0.3,0-0.5,0.1-0.8c0-0.1,0-0.3,0.1-0.4c-0.5-0.7-0.6-1.5-0.3-2.3
		c0.5-1.3,2-2,3.3-1.5c2.6,0.9,2.2,4,2.1,5c0,0.1,0,0.2,0,0.2c0,0.3,0,0.6,0,1c0,0.5,0.1,1,0.1,1.5c0,1,0,2,0,3.1
		c0,7.2,0,15.3-7,20.6c-0.1,0.1-0.3,0.2-0.4,0.4c-0.5,0.4-1.1,1-2,1.4c-1,0.4-2,0.5-2.8,0.6c-0.2,0-0.4,0-0.5,0.1l-0.3,0
		C-95.9,198.7-96.3,198.8-96.8,198.8z"></path>
	<path class="st0" d="M-68.8,209.3c-0.7,0-1.4-0.3-2-0.9c-0.9-1.1-0.8-2.7,0.2-3.7c0.4-0.3,0.7-0.5,1-0.7c0.3-0.5,0.6-1,0.9-1.5
		c0.2-0.3,0.3-0.5,0.5-0.8c1.2-2.1,2.6-4.1,3.9-6c1.6-2.4,3.2-4.6,4.5-6.9c0.2-0.4,0.4-0.8,0.6-1.3c0.3-0.7,0.6-1.4,1.1-2.2
		c0.2-0.3,0.4-0.7,0.6-1c0.6-1,1.2-2.2,2.3-3.3c0.1-0.1,0.2-0.4,0.4-0.6c0.1-0.2,0.2-0.4,0.3-0.6c0.7-1.2,1.8-2.7,3.3-4
		c1.1-0.9,2.7-0.7,3.6,0.4c0.9,1.1,0.7,2.7-0.4,3.6c-0.9,0.8-1.6,1.8-2.2,2.7c-0.1,0.1-0.1,0.3-0.2,0.4c-0.3,0.5-0.6,1.1-1.2,1.7
		c-0.5,0.5-1,1.3-1.4,2.1c-0.2,0.4-0.4,0.8-0.7,1.2c-0.3,0.4-0.5,0.9-0.7,1.5c-0.2,0.6-0.5,1.1-0.8,1.7c-1.4,2.6-3.1,5-4.7,7.4
		c-1.3,1.9-2.6,3.8-3.7,5.7c-0.2,0.3-0.3,0.6-0.5,0.9c-0.3,0.5-0.6,1-0.9,1.5c-0.6,1-1.4,1.5-1.8,1.7c-0.1,0-0.2,0.1-0.2,0.1
		C-67.6,209.1-68.2,209.3-68.8,209.3z"></path>
	<path class="st0" d="M-52.9,219.9c-0.5,0-1.1-0.1-1.7-0.2c-5-1.4-7.3-3.3-10.4-5.8c-0.5-0.4-1.1-0.9-1.7-1.3c0,0,0,0,0,0
		c-0.3-0.1-0.8-0.3-1.3-0.7c0,0-0.1,0-0.1-0.1c-0.2-0.1-0.3-0.2-0.5-0.3c-1-0.7-1.6-1.5-2-2.1c-0.2-0.2-0.3-0.5-0.5-0.6
		c-1-1.1-0.9-2.7,0.2-3.7c1.1-1,2.7-0.9,3.7,0.2c0.4,0.4,0.7,0.8,0.9,1.2c0.2,0.3,0.4,0.6,0.5,0.6c0,0,0.1,0.1,0.1,0.1
		c0.2,0.1,0.4,0.2,0.7,0.4c0,0,0,0,0,0c0.3,0.1,0.8,0.3,1.3,0.7c0.7,0.5,1.3,1,1.9,1.5c3,2.4,4.6,3.7,8.6,4.9
		c0.3,0.1,0.6,0.1,1.5-0.3c2.3-0.9,4.2-3.2,4.7-5.7c0.2-1.1,0.3-3.2-1.3-4.8c-0.3-0.3-0.7-0.7-1-1c-0.5-0.5-1-1-1.5-1.4l-0.1-0.1
		c-1.2-1-2.3-2-3.5-3.2c-1.2-1.2-2.5-2.3-3.6-3.1c0,0-0.1,0-0.1-0.1c-1.1-0.9-1.3-2.5-0.4-3.6c0.9-1.1,2.5-1.3,3.6-0.4
		c0,0,0,0,0.1,0c0.2,0.1,0.4,0.2,0.6,0.4c0.4,0.2,0.8,0.5,1.2,0.8c0.7,0.6,1.1,0.7,1.2,0.8c0.9,0.2,1.7,0.5,2.5,0.8
		c0.6,0.2,1.1,0.4,1.6,0.5c0.5,0.1,1,0.2,1.7,0.2c0.6,0,1.3,0,2,0.1c0.1,0,0.2,0,0.2,0c1.3-0.1,2.3-0.5,2.8-1c1.8-1.9,0.3-5-0.8-6.6
		c-0.9-1.2-2.4-2.3-3.9-3.3c-0.6-0.5-1.3-0.9-1.9-1.4c-0.2-0.1-0.4-0.3-0.6-0.4c-0.6-0.5-1.2-1-1.9-1.5c-0.1,0-0.4-0.1-0.5-0.1
		c-1.4-0.3-2.3-1.6-2-3.1c0.3-1.4,1.7-2.3,3.1-2c0.7,0.1,1.8,0.4,2.8,1.2c0.5,0.5,1.1,0.9,1.7,1.4c0.2,0.2,0.4,0.3,0.6,0.5
		c0.5,0.4,1.1,0.8,1.7,1.3c1.7,1.2,3.7,2.6,5.1,4.5c1.4,1.9,2.3,4,2.5,6c0.4,2.7-0.4,5.2-2.1,7.1c-2,2.2-5.1,2.6-6.7,2.7
		c-0.5,0-0.9-0.1-1.1-0.1c-0.1,0-0.2,0-0.3,0c0.2,0.2,0.4,0.4,0.5,0.5c2.5,2.4,3.5,5.9,2.8,9.5c-0.9,4.2-4,8-7.9,9.5
		C-50.7,219.5-51.8,219.9-52.9,219.9z"></path>
	<path class="st0" d="M-242.1,291.7c-1.4,0-2.6-1.2-2.6-2.6c0-0.6,0-1.3-0.1-2c-0.1-1.7-0.1-3.4,0.1-5.2
		c2.3-14.7,5.2-26.3,12.4-38.1c0.9-1.5,8.2-11.4,9.4-12.6c1-1,2.7-1,3.7,0c1,1,1,2.7,0,3.7c-0.9,1-7.8,10.2-8.6,11.6
		c-6.7,11.2-9.5,22.1-11.7,36.3c-0.2,1.2-0.1,2.7-0.1,4.2c0,0.7,0.1,1.5,0.1,2.2C-239.5,290.5-240.6,291.7-242.1,291.7z"></path>
	<path class="st0" d="M4,307.8c-1.4,0-2.6-1.1-2.6-2.6c0-2.5,0.1-5.3,0.2-8.3c0.2-5.6,0.4-11.3-0.2-15.7c-2.9-20.1-9.1-35.1-18.8-46
		c-0.5-0.5-0.9-1.1-1.4-1.6c-0.8-0.9-1.5-1.9-2.3-2.5c-1.1-0.9-1.3-2.5-0.4-3.6c0.9-1.1,2.5-1.3,3.6-0.4c1.2,1,2.2,2.2,3.1,3.3
		c0.4,0.5,0.8,1,1.2,1.4c10.4,11.7,17,27.6,20.1,48.7c0.7,4.8,0.5,10.8,0.2,16.6c-0.1,2.9-0.2,5.7-0.2,8
		C6.6,306.7,5.5,307.8,4,307.8C4,307.8,4,307.8,4,307.8z"></path>
</g>
</svg>