<?xml version="1.0" encoding="utf-8"?>
<!-- Generator: Adobe Illustrator 18.0.0, SVG Export Plug-In . SVG Version: 6.00 Build 0)  -->
<!DOCTYPE svg PUBLIC "-//W3C//DTD SVG 1.1//EN" "http://www.w3.org/Graphics/SVG/1.1/DTD/svg11.dtd">
<svg version="1.1" id="Layer_1" xmlns="http://www.w3.org/2000/svg" xmlns:xlink="http://www.w3.org/1999/xlink" x="0px" y="0px"
	 viewBox="0 0 64 64" enable-background="new 0 0 64 64" xml:space="preserve">
<g>
	<path d="M33.9,40.4"/>
	<path d="M43.8,10.6c0.4-1,0.4-2.2-0.1-3.2c-0.1-0.3-0.4-0.7-0.7-1.1c-0.1-0.1-0.2-0.2-0.3-0.3c-0.1-0.1-0.2-0.1-0.2-0.2
		c-0.1-0.1-0.2-0.2-0.3-0.4C42.1,5.3,42,5.2,41.8,5c-0.3-0.4-0.7-0.6-1-0.8l-0.1,0c-0.1-0.1-0.3-0.2-0.4-0.3c-0.1,0-0.1-0.1-0.2-0.1
		c-0.2-0.2-0.4-0.2-0.6-0.3c-0.1,0-0.2-0.1-0.2-0.1c-0.4-0.2-0.8-0.4-1.2-0.6c-0.8-0.3-1.7-0.6-2.5-0.8c-1-0.2-1.9-0.3-2.7-0.3
		c-1.2,0-2.2,0.2-3,0.7c-0.4,0.2-0.8,0.5-1,0.8c-0.1,0-0.2,0.1-0.2,0.2c-0.6,0.6-1.5,1.5-2,2.5c-0.1,0.1-0.1,0.3-0.2,0.4
		c-0.1,0.2-0.2,0.3-0.2,0.5c-0.2,0.3-0.4,0.6-0.5,0.9l-0.2,0.3c-1.1,2-2.1,4-2.9,6.1c-0.2,0.5-0.4,1.1-0.7,1.7
		c-0.1,0.1-0.1,0.3-0.2,0.4c-0.1,0.4-0.3,0.8-0.4,1.2c-0.2,0.5-0.3,1.1-0.4,1.6l0,0.1c-0.3,1.1-0.5,2.2-0.7,3.3
		c-0.2,1.2-0.5,2.9-0.8,4.5c0,0.1,0,0.2-0.1,0.3c0,0.3-0.1,0.5-0.2,0.8c-0.1,0.4-0.2,0.7-0.3,1.1l0,0.2c0,0.1,0,0.1-0.1,0.2
		c-0.1,0.2-0.2,0.5-0.2,0.9c0,0.1,0,0.3,0,0.4c0,0.1,0,0.1,0,0.2c0,0.1,0,0.2,0,0.4c0,0.2-0.1,0.5-0.1,0.7c0,1,0.6,1.8,1.6,2.2
		c0.5,0.2,0.9,0.3,1.4,0.4c0,0,0,0,0,0.1c0.1,0.2,0.2,0.4,0.3,0.6c0.2,0.5,0.4,1,0.7,1.4c0,0.1,0.1,0.2,0.1,0.3c0,0.2,0,0.4,0.2,0.6
		c0,0.1,0.1,0.1,0.2,0.2c0.1,0.3,0.2,0.6,0.3,1l0.1,0.4c0.2,0.7,0.4,1.5,0.8,2.2c0,0.1,0.1,0.1,0.1,0.2c0,0,0,0.1,0.1,0.1
		c-0.3,0.2-0.5,0.4-0.7,0.6l0,0c-0.1,0.1-0.2,0.2-0.2,0.2c-0.3,0.3-0.7,0.6-1,1.1c0,0.1-0.1,0.1-0.1,0.2c-0.2,0.3-0.4,0.5-0.5,1
		l-0.1,0.2c-0.1,0.3-0.2,0.6-0.3,1c-0.5,1.2-0.6,2.6-0.7,3.8c0,0.4-0.1,0.8-0.1,1.2c-0.1,0.5-0.2,1.4,0.6,2.1c0.5,0.5,1.3,0.6,2,0.8
		c0.2,0,0.3,0.1,0.5,0.1c0.6,0.2,1.1,0.2,1.7,0.2c0.2,0,0.4,0,0.6,0c0.1,0,0.2,0,0.4,0c0.1,0,0.2,0,0.3,0c0.6,0,1.1,0,1.8-0.2
		c0.3-0.1,0.6-0.2,0.8-0.3c0.1,0,0.2-0.1,0.3-0.1C29.7,53,29.8,53,30,53c0.1,0,0.3,0,0.5-0.1c0.1,0,0.2,0,0.3-0.1
		c0.2,0,0.3-0.1,0.4-0.1c0.2,0,0.4,0.1,0.7,0.2c0.5,0.2,1,0.4,1.7,0.3c0.2,0,0.3-0.1,0.5-0.1c0.1,0,0.3-0.1,0.4-0.1
		c0.2,0,0.5,0,0.8,0c0.2,0,0.4,0,0.7,0c0,0,0,0,0,0c0.2,0,0.3,0,0.5,0c0.3,0,0.7,0,1,0c0.5,0,0.9-0.3,1.1-0.8c0.1-0.5,0-1-0.4-1.7
		c-0.3-0.4-0.6-0.9-0.9-1c-0.4-0.3-1-1.1-1-1.6c0-0.1,0-0.2,0-0.2c0.3-0.3,0.2-0.8-0.1-1.1c-0.1,0-0.1-0.1-0.2-0.1c0,0,0.1,0,0.1,0
		c1.2-0.6,1.8-1.8,1.5-3.2l0-0.1c0-0.1,0-0.2-0.1-0.3c0,0,0,0,0,0l0-0.1c0.1,0,0.2-0.1,0.2-0.1c0,0,0,0,0,0c0.2,0,0.6,0,0.9-0.4
		c0.1-0.2,0.2-0.4,0.3-0.6l0-0.1c0,0,0-0.1,0-0.1c0.1-0.5,0.1-0.9,0.1-1.3c0-0.2,0-0.3,0-0.5c0-0.1,0-0.2,0.1-0.3
		c0.1-0.2,0.2-0.5,0.1-0.8c-0.1-0.6-0.3-1.1-0.5-1.5c0-0.1-0.1-0.2-0.1-0.2c-0.1-0.2-0.2-0.4-0.3-0.5c-0.2-0.3-0.3-0.6-0.4-0.9
		c-0.5-1.1-1.1-2.1-1.8-3.2c0-0.2-0.2-0.4-0.4-0.5c-0.9-1.4-2-2.7-3.2-3.9c0.2-0.2,0.4-0.4,0.5-0.5l0-0.1c0.5-0.5,0.9-1,1.2-1.5
		c0-0.1,0.1-0.1,0.1-0.2c0.2-0.2,0.4-0.5,0.5-0.8c0-0.1,0-0.1,0.1-0.2c0.1-0.1,0.1-0.3,0.2-0.4c0.2-0.3,0.5-0.6,0.7-0.9
		c0.1-0.2,0.3-0.4,0.5-0.6l0.6-0.8c0,0,0,0,0.1-0.1c0.3-0.4,0.5-0.8,0.7-1.3c0.3-0.6,0.7-1.1,1.1-1.7c0.2-0.3,0.5-0.7,0.7-1
		c0.8-1.2,1.7-2.6,2.6-3.9C42.6,13,43.3,11.9,43.8,10.6C43.8,10.6,43.8,10.6,43.8,10.6C43.8,10.6,43.8,10.6,43.8,10.6
		C43.8,10.6,43.8,10.6,43.8,10.6C43.8,10.6,43.8,10.6,43.8,10.6z M32.9,3.2c0.7,0,1.5,0.1,2.4,0.3c0.8,0.2,1.5,0.4,2.3,0.7
		c0.4,0.2,0.7,0.3,1.1,0.5c0.1,0.1,0.3,0.1,0.4,0.2c0.1,0,0.2,0.1,0.3,0.1c0.1,0,0.1,0.1,0.2,0.1c0.2,0.1,0.3,0.2,0.5,0.3l0.1,0
		c0.3,0.2,0.5,0.3,0.7,0.5c0.1,0.1,0.2,0.2,0.2,0.3c0.1,0.2,0.3,0.4,0.4,0.6c0.1,0.1,0.2,0.2,0.3,0.3c0.1,0.1,0.1,0.1,0.2,0.2
		c0.1,0.1,0.3,0.3,0.4,0.6c0.3,0.7,0.3,1.4,0.1,2c-0.3,0.7-1.3,1.3-2.4,1.5c-0.2,0-0.3,0-0.5,0c-0.7,0-1.5,0-2.2-0.2
		c-0.4-0.1-0.8-0.2-1.1-0.3c0,0,0,0-0.1,0c-0.1,0-0.2-0.1-0.3-0.2c-0.1,0-0.1,0-0.2-0.1c-0.1,0-0.2-0.1-0.2-0.1c0,0-0.1-0.1-0.2-0.1
		c-0.1-0.1-0.3-0.2-0.5-0.3c-0.2-0.1-0.4-0.2-0.6-0.3C34,10,34,10,33.9,10c-0.1,0-0.1,0-0.2-0.1c0,0-0.1,0-0.1,0c0,0,0,0,0,0
		c0,0-0.1-0.1-0.1-0.1c-0.2-0.1-0.3-0.2-0.4-0.3c-1.2-1-3.6-3-3.4-4.5c0-0.2,0.1-0.7,1.1-1.3C31.2,3.3,32,3.2,32.9,3.2z M36.8,37.1
		c0.1,0.2,0.2,0.3,0.3,0.5c0,0.1,0.1,0.2,0.1,0.2c0.2,0.3,0.4,0.7,0.4,1c0,0,0,0.2-0.1,0.2c-0.1,0.2-0.1,0.4-0.1,0.7
		c0,0.2,0,0.4,0,0.6c0,0.3,0,0.6,0,0.8c0,0,0,0,0,0c0,0,0,0.1,0,0.1c0,0,0,0,0,0c-0.2,0-0.4,0.1-0.6,0.2c-0.1,0-0.2,0.1-0.3,0.1
		l-0.1,0c-0.4,0.1-0.8,0.2-1.3,0.3c-0.7,0.3-1.5,0.5-2.2,0.6c-0.4,0.1-0.6,0.5-0.5,0.9c0.1,0.3,0.4,0.6,0.7,0.6c0.1,0,0.1,0,0.2,0
		c0.7-0.2,1.5-0.4,2.3-0.7c0.1,0,0.2-0.1,0.3-0.1c0,0.1,0,0.2,0.1,0.3l0,0.1c0.2,0.8-0.1,1.3-0.6,1.5c-0.3,0.1-0.6,0.3-1,0.4
		c-0.4,0.2-0.9,0.3-1.3,0.5c-0.3,0.1-0.5,0.3-0.8,0.4c-0.3,0.2-0.5,0.3-0.8,0.4c-0.5,0.2-1,0.4-1.5,0.6c-0.4,0.2-0.9,0.3-1.3,0.5
		c-0.4,0.2-0.5,0.6-0.4,1c0.1,0.3,0.4,0.4,0.7,0.4c0.1,0,0.2,0,0.3-0.1c0.4-0.2,0.8-0.3,1.2-0.5c0.5-0.2,1.1-0.4,1.6-0.7
		c0.3-0.1,0.6-0.3,0.9-0.5c0.3-0.1,0.5-0.3,0.7-0.4c0.4-0.2,0.7-0.3,1.1-0.5c-0.2,0.3-0.3,0.7-0.3,1.1c0.1,1.1,1,2.1,1.6,2.6
		c0.2,0.1,0.4,0.5,0.6,0.8c-0.1,0-0.3,0-0.4,0c-0.2,0-0.4,0-0.5,0c-0.2,0-0.4,0-0.5,0c-0.3,0-0.7-0.1-1,0c-0.3,0-0.5,0.1-0.7,0.2
		c-0.1,0-0.2,0.1-0.3,0.1c-0.2,0-0.4,0-0.8-0.2c-0.4-0.2-0.8-0.3-1.3-0.3c-0.3,0-0.5,0-0.7,0.1c-0.1,0-0.1,0-0.2,0
		c-0.1,0-0.2,0-0.3,0c-0.3,0-0.6,0-0.9,0.2c-0.1,0-0.2,0.1-0.3,0.1c-0.3,0.1-0.5,0.2-0.7,0.3c-0.4,0.2-0.8,0.2-1.3,0.2
		c-0.1,0-0.2,0-0.3,0c-0.1,0-0.2,0-0.4,0c-0.7,0-1.3,0-1.9-0.1c-0.2,0-0.3-0.1-0.5-0.1c-0.5-0.1-1.1-0.2-1.3-0.4
		c-0.1-0.1-0.1-0.3-0.1-0.7c0.1-0.4,0.1-0.9,0.1-1.3c0.1-1.2,0.2-2.4,0.6-3.4c0.2-0.4,0.3-0.8,0.4-1.1l0-0.2c0-0.2,0.1-0.3,0.3-0.5
		c0-0.1,0.1-0.1,0.1-0.2c0.2-0.3,0.5-0.6,0.8-0.8c0.1-0.1,0.2-0.2,0.3-0.2l0,0c0,0,0,0,0,0c0,0.1,0.1,0.1,0.1,0.1
		c0.3,0.3,0.7,0.4,1,0.5c0.1,0,0.1,0,0.2,0c0.2,0.1,0.4,0.1,0.6,0.2c0,0,0,0.1,0.1,0.1l0.3,0.3c0.1,0.2,0.3,0.3,0.5,0.4
		c0.1,0,0.1,0,0.2,0c0.2,0,0.4-0.1,0.6-0.3c0.3-0.1,0.7-0.4,0.7-0.9c0-0.4-0.2-0.7-0.6-0.8c-0.3-0.1-0.5-0.1-0.8-0.2
		c-0.4-0.1-0.7-0.1-1.1-0.3c-0.1,0-0.1,0-0.2-0.1c-0.1,0-0.1,0-0.2-0.1c0.2-0.2,0.3-0.4,0.3-0.7c0-0.3-0.3-0.6-0.6-0.7
		c-0.1-0.1-0.1-0.2-0.2-0.3c0,0-0.1-0.1-0.1-0.1c-0.3-0.5-0.5-1.1-0.6-1.7c0.6,0.2,1.3,0.3,2.1,0.3c0,0,0,0,0.1,0
		c2.4,0,4.8-1.1,6.4-2.8c0.1-0.1,0.2-0.2,0.3-0.4c0.6-0.6,1.1-1.2,1.4-1.7c0.4,0.7,0.7,1.3,1,2C36.5,36.5,36.6,36.8,36.8,37.1z
		 M38.1,17.1c-0.2,0.3-0.5,0.7-0.7,1c-0.4,0.6-0.8,1.1-1.2,1.8c0,0,0,0,0,0c-0.2,0.4-0.4,0.8-0.7,1.2L35,21.8
		c-0.1,0.2-0.3,0.3-0.4,0.5c-0.3,0.3-0.5,0.7-0.8,1c-0.2,0.2-0.2,0.4-0.3,0.6c0,0,0,0.1-0.1,0.1c-0.1,0.1-0.2,0.3-0.3,0.5
		c-0.1,0.1-0.1,0.1-0.2,0.2c-0.3,0.5-0.7,0.9-1.1,1.4l-0.1,0.1c-0.2,0.2-0.4,0.5-0.6,0.5c-0.4,0.2-0.9,0.3-1.5,0.3
		c-0.8,0-1.8-0.1-2.7-0.4c-0.7-0.2-1.3-0.5-1.8-0.9c-0.1-0.1-0.1-0.1-0.2-0.2c-0.3-0.3-0.8-0.2-1.1,0.1c-0.3,0.3-0.2,0.8,0.1,1.1
		c0.1,0.1,0.2,0.1,0.3,0.2c0.6,0.4,1.4,0.8,2.2,1.1c0.9,0.3,2,0.5,2.9,0.5c0.1,0,0.2,0,0.3,0c0.2,0,0.3,0,0.5,0c0,0,0,0.1,0,0.1
		c0,0.1-0.1,0.1-0.2,0.2c-0.1,0.1-0.3,0.2-0.3,0.2c-0.4,0-0.9,0.1-1.3,0.4c-0.1,0.1-0.3,0.1-0.5,0.2l-0.1,0
		c-0.2,0.1-0.5,0.1-0.9,0.1c-0.4,0-0.7,0.4-0.7,0.8c0,0.4,0.3,0.7,0.8,0.7c0,0,0,0,0,0c0.5,0,0.8-0.1,1.2-0.1l0.1,0
		c0.3-0.1,0.6-0.1,1-0.3c0.2-0.1,0.4-0.2,0.6-0.2c0.4,0,0.9-0.2,1.3-0.5c0.3-0.2,0.5-0.5,0.6-0.8c1,1.1,2,2.3,2.8,3.4
		c-0.2,0.5-0.9,1.3-1.7,2.1c-0.1,0.1-0.2,0.2-0.3,0.4c-1.3,1.4-3.3,2.3-5.3,2.3c-1.1,0-2.1-0.3-2.8-0.8c0,0,0,0,0,0
		c-0.1-0.3-0.3-0.5-0.4-0.8c-0.2-0.4-0.4-0.7-0.5-1.1c0,0,0,0,0,0c0.2,0,0.4,0.1,0.6,0.1c0.3,0,0.5,0.1,0.8,0.1c0,0,0.1,0,0.1,0
		c0.2,0,0.4,0.1,0.6,0c0.1,0,0.2,0,0.2,0c0.1,0.1,0.3,0.3,0.5,0.3c0.1,0,0.1,0,0.2,0c0.3,0,0.7-0.2,0.7-0.6c0.1-0.3-0.1-0.6-0.3-0.8
		c0-0.1-0.1-0.1-0.2-0.2c-0.4-0.3-0.9-0.3-1.3-0.3c-0.1,0-0.2,0-0.3,0c0,0-0.1,0-0.1,0c-0.2,0-0.5-0.1-0.7-0.1
		c-0.2,0-0.4-0.1-0.6-0.1c-0.2,0-0.5-0.1-0.7-0.1c-0.1,0-0.2,0-0.3-0.1c-0.6-0.1-1.3-0.3-2-0.5c-0.6-0.2-0.6-0.5-0.6-0.8
		c0-0.1,0-0.3,0.1-0.5c0-0.2,0.1-0.3,0.1-0.5c0-0.2,0-0.4,0-0.5c0-0.1,0-0.1,0-0.2c0-0.1,0-0.2,0.1-0.4c0-0.1,0.1-0.2,0.1-0.3l0-0.2
		c0.1-0.3,0.2-0.6,0.3-0.9c0.1-0.3,0.2-0.7,0.2-1c0-0.1,0-0.2,0.1-0.3c0.3-1.7,0.6-3.3,0.8-4.5c0.2-1,0.4-2.1,0.7-3.2l0-0.1
		c0.1-0.5,0.3-1.1,0.4-1.6c0.1-0.3,0.2-0.7,0.4-1.1c0.1-0.1,0.1-0.3,0.2-0.4c0.2-0.6,0.5-1.2,0.7-1.7c0.8-2,1.7-4,2.8-5.9L27,8.3
		c0.2-0.3,0.3-0.6,0.5-0.8c0.1-0.2,0.2-0.4,0.3-0.6c0.1-0.1,0.1-0.2,0.2-0.3c0.1-0.1,0.2-0.3,0.2-0.4c0.5,1.6,2.2,3.1,3.8,4.5
		c0.2,0.1,0.3,0.3,0.5,0.4c0,0,0,0,0,0c0.1,0,0.1,0.1,0.2,0.2c0.1,0.1,0.3,0.1,0.4,0.2c0,0,0.1,0,0.1,0c0.1,0,0.2,0.1,0.3,0.1
		c0.1,0,0.3,0.1,0.4,0.1c0.1,0,0.1,0.1,0.2,0.2c0.1,0.1,0.2,0.1,0.2,0.2c0.2,0.1,0.4,0.2,0.6,0.3c0,0,0.1,0,0.1,0c0,0,0,0,0.1,0
		c0.1,0,0.2,0.1,0.3,0.2c0.4,0.1,0.8,0.2,1.3,0.3c0.7,0.2,1.5,0.2,2.2,0.2c0.2,0,0.3,0,0.5,0c0.2,0,0.4,0,0.6-0.1
		c0.3,0,0.5-0.1,0.8-0.1c-0.1,0.1-0.2,0.2-0.2,0.4C39.9,14.6,39,15.9,38.1,17.1z"/>
	<path d="M28.5,12.4l0,1.2c0,0.4,0.3,0.7,0.8,0.7c0,0,0,0,0,0c0.4,0,0.7-0.4,0.7-0.8l0-1.2c0-0.4-0.4-0.7-0.8-0.7
		C28.8,11.7,28.5,12,28.5,12.4z"/>
	<path d="M28.3,16.6c-0.2,0-0.4,0.1-0.5,0.2c-0.1,0.1-0.2,0.3-0.2,0.5c0,0.2,0.1,0.4,0.2,0.5c0.1,0.1,0.3,0.2,0.5,0.2
		c0.2,0,0.4-0.1,0.5-0.2c0.1-0.1,0.2-0.3,0.2-0.5c0-0.2-0.1-0.4-0.2-0.5C28.7,16.6,28.5,16.6,28.3,16.6z"/>
	<path d="M30,22.4c-0.2,0-0.4,0.1-0.5,0.2c-0.1,0.1-0.2,0.3-0.2,0.5c0,0.2,0.1,0.4,0.2,0.5c0.1,0.1,0.3,0.2,0.5,0.2
		c0.2,0,0.4-0.1,0.5-0.2c0.1-0.1,0.2-0.3,0.2-0.5c0-0.2-0.1-0.4-0.2-0.5C30.4,22.4,30.2,22.4,30,22.4z"/>
	<path d="M28.6,10.5c0.2,0,0.4-0.1,0.5-0.2c0.1-0.1,0.2-0.3,0.2-0.5c0-0.2-0.1-0.4-0.2-0.5C29,9,28.8,9,28.6,9C28.4,9,28.2,9,28,9.2
		c-0.1,0.1-0.2,0.3-0.2,0.5c0,0.2,0.1,0.4,0.2,0.5C28.2,10.4,28.4,10.5,28.6,10.5z"/>
	<path d="M33.8,14.5c-0.2,0-0.4,0.1-0.5,0.2c-0.1,0.1-0.2,0.3-0.2,0.5c0,0.2,0.1,0.4,0.2,0.5c0.1,0.1,0.3,0.2,0.5,0.2
		c0.2,0,0.4-0.1,0.5-0.2c0.1-0.1,0.2-0.3,0.2-0.5c0-0.2-0.1-0.4-0.2-0.5C34.2,14.6,34,14.5,33.8,14.5z"/>
	<path d="M31.8,18.6l-1.1,0.4c-0.4,0.2-0.6,0.6-0.4,1c0.1,0.3,0.4,0.5,0.7,0.5c0.1,0,0.2,0,0.3-0.1l1.1-0.4c0.4-0.2,0.6-0.6,0.4-1
		C32.7,18.6,32.2,18.5,31.8,18.6z"/>
	<path d="M36.7,14.5c-0.4-0.1-0.8,0.2-0.9,0.6l-0.2,1.1c-0.1,0.4,0.2,0.8,0.6,0.9c0.1,0,0.1,0,0.2,0c0.3,0,0.7-0.2,0.7-0.6l0.2-1.1
		C37.4,14.9,37.1,14.5,36.7,14.5z"/>
	<path d="M24.5,17.3c-0.4,0-0.8,0.3-0.8,0.7l-0.1,1.2c0,0.4,0.3,0.8,0.7,0.8c0,0,0,0,0,0c0.4,0,0.7-0.3,0.8-0.7l0.1-1.2
		C25.2,17.7,24.9,17.4,24.5,17.3z"/>
	<path d="M42.9,42.9C42.9,42.9,42.9,42.9,42.9,42.9c-0.4,0-0.8-0.4-0.8-0.8c0-0.2,0-0.4,0.1-0.6c0.1-0.3,0.2-0.6,0.4-0.9
		c0.1-0.1,0.1-0.2,0.1-0.3c0.2-0.3,0.3-0.6,0.3-0.9c0.1-0.5,0.2-1.1,0.1-1.6c0-0.3-0.1-0.5-0.2-0.7c-0.1-0.2-0.2-0.3-0.3-0.5
		c0-0.1-0.1-0.1-0.1-0.2c-0.4-0.5-0.6-1-0.8-1.7c-0.3-1.1-0.2-2.2-0.1-3.1c0.1-0.9,0.2-1.8,0.4-2.7c0.1-0.6,0.1-1.2-0.1-1.8
		c-0.1-0.4,0.1-0.8,0.5-0.9c0.4-0.1,0.8,0.1,0.9,0.5c0.2,0.9,0.3,1.7,0.1,2.5c-0.2,0.8-0.3,1.7-0.4,2.5c-0.1,0.8-0.1,1.8,0.1,2.6
		c0.1,0.4,0.3,0.8,0.5,1.1c0,0,0.1,0.1,0.1,0.1c0.2,0.2,0.4,0.5,0.5,0.8c0.1,0.3,0.2,0.7,0.3,1.1c0.1,0.7,0,1.4-0.2,2.1
		c-0.1,0.4-0.3,0.8-0.4,1.1C44,41,44,41.1,43.9,41.2c-0.1,0.2-0.2,0.4-0.2,0.6c0,0.1,0,0.2,0,0.3C43.6,42.6,43.3,42.9,42.9,42.9z"/>
	<path d="M35,55.9c-0.2,0-0.4-0.1-0.5-0.2c-0.1-0.1-0.2-0.3-0.2-0.5c0-0.2,0.1-0.4,0.2-0.5c0.1-0.1,0.3-0.2,0.5-0.2
		c0.2,0,0.4,0.1,0.5,0.2c0.1,0.1,0.2,0.3,0.2,0.5c0,0.2-0.1,0.4-0.2,0.5C35.4,55.8,35.2,55.9,35,55.9z"/>
	<path d="M23.9,60.7c-0.2,0-0.4-0.1-0.5-0.2c-0.1-0.1-0.2-0.3-0.2-0.5c0-0.2,0.1-0.4,0.2-0.5c0.1-0.1,0.3-0.2,0.5-0.2
		c0.2,0,0.4,0.1,0.5,0.2c0.1,0.1,0.2,0.3,0.2,0.5c0,0.2-0.1,0.4-0.2,0.5C24.3,60.7,24.1,60.7,23.9,60.7z"/>
	<path d="M40.4,60.7c-0.2,0-0.4-0.1-0.5-0.2c-0.1-0.1-0.2-0.3-0.2-0.5c0-0.2,0.1-0.4,0.2-0.5c0.1-0.1,0.3-0.2,0.5-0.2
		c0.2,0,0.4,0.1,0.5,0.2c0.1,0.1,0.2,0.3,0.2,0.5c0,0.2-0.1,0.4-0.2,0.5C40.8,60.7,40.6,60.7,40.4,60.7z"/>
	<path d="M18.7,53c-0.2,0-0.4-0.1-0.5-0.2c-0.1-0.1-0.2-0.3-0.2-0.5c0-0.2,0.1-0.4,0.2-0.5c0.1-0.1,0.3-0.2,0.5-0.2
		c0.2,0,0.4,0.1,0.5,0.2c0.1,0.1,0.2,0.3,0.2,0.5c0,0.2-0.1,0.4-0.2,0.5C19.1,52.9,18.9,53,18.7,53z"/>
	<path d="M42.3,50.4c-0.2,0-0.4-0.1-0.5-0.2c-0.1-0.1-0.2-0.3-0.2-0.5c0-0.2,0.1-0.4,0.2-0.5c0.1-0.1,0.3-0.2,0.5-0.2
		c0.2,0,0.4,0.1,0.5,0.2c0.1,0.1,0.2,0.3,0.2,0.5c0,0.2-0.1,0.4-0.2,0.5C42.7,50.3,42.5,50.4,42.3,50.4z"/>
	<path d="M32,54.3c-0.2,0-0.4-0.1-0.5-0.2c-0.1-0.1-0.2-0.3-0.2-0.5c0-0.2,0.1-0.4,0.2-0.5c0.1-0.1,0.3-0.2,0.5-0.2
		c0.2,0,0.4,0.1,0.5,0.2c0.1,0.1,0.2,0.3,0.2,0.5c0,0.2-0.1,0.4-0.2,0.5C32.4,54.2,32.2,54.3,32,54.3z"/>
	<path d="M10.3,57.7c-0.2,0-0.4-0.1-0.5-0.2c-0.1-0.1-0.2-0.3-0.2-0.5c0-0.2,0.1-0.4,0.2-0.5c0.1-0.1,0.3-0.2,0.5-0.2
		c0.2,0,0.4,0.1,0.5,0.2c0.1,0.1,0.2,0.3,0.2,0.5c0,0.2-0.1,0.4-0.2,0.5C10.6,57.6,10.5,57.7,10.3,57.7z"/>
	<path d="M53.7,58.6c-0.2,0-0.4-0.1-0.5-0.2C53.1,58.2,53,58,53,57.8c0-0.2,0.1-0.4,0.2-0.5c0.1-0.1,0.3-0.2,0.5-0.2
		c0.2,0,0.4,0.1,0.5,0.2c0.1,0.1,0.2,0.3,0.2,0.5c0,0.2-0.1,0.4-0.2,0.5C54.1,58.5,53.9,58.6,53.7,58.6z"/>
	<path d="M17.4,62.3c-0.2,0-0.4-0.1-0.5-0.2c-0.1-0.1-0.2-0.3-0.2-0.5c0-0.2,0.1-0.4,0.2-0.5c0.1-0.1,0.3-0.2,0.5-0.2
		c0.2,0,0.4,0.1,0.5,0.2c0.1,0.1,0.2,0.3,0.2,0.5c0,0.2-0.1,0.4-0.2,0.5C17.8,62.3,17.6,62.3,17.4,62.3z"/>
	<path d="M34.2,58.6c-0.4,0-0.7-0.3-0.8-0.7c0-0.4,0.3-0.8,0.7-0.8l1.2-0.1c0.4,0,0.8,0.3,0.8,0.7c0,0.4-0.3,0.8-0.7,0.8L34.2,58.6
		C34.3,58.6,34.2,58.6,34.2,58.6z"/>
	<path d="M38.3,54.1c-0.3,0-0.6-0.2-0.7-0.5c-0.1-0.4,0.1-0.8,0.5-0.9l1.1-0.3c0.4-0.1,0.8,0.1,0.9,0.5c0.1,0.4-0.1,0.8-0.5,0.9
		l-1.1,0.3C38.5,54.1,38.4,54.1,38.3,54.1z"/>
	<path d="M30,56.9c-0.3,0-0.6-0.2-0.7-0.6c-0.1-0.4,0.2-0.8,0.6-0.9l1.1-0.3c0.4-0.1,0.8,0.2,0.9,0.6c0.1,0.4-0.2,0.8-0.6,0.9
		l-1.1,0.3C30.1,56.9,30.1,56.9,30,56.9z"/>
	<path d="M24.3,55.9C24.3,55.9,24.2,55.9,24.3,55.9l-1.2-0.1c-0.4,0-0.7-0.4-0.7-0.8c0-0.4,0.4-0.7,0.8-0.7l1.2,0.1
		c0.4,0,0.7,0.4,0.7,0.8C25,55.6,24.7,55.9,24.3,55.9z"/>
	<path d="M43.6,57.3c-0.4,0-0.7-0.3-0.8-0.7c0-0.4,0.3-0.8,0.7-0.8l1.2-0.1c0.4,0,0.8,0.3,0.8,0.7c0,0.4-0.3,0.8-0.7,0.8L43.6,57.3
		C43.7,57.3,43.7,57.3,43.6,57.3z"/>
	<path d="M45.7,31.7c-0.3,0-0.5-0.1-0.6-0.4c-0.4-0.7-0.3-1.5-0.3-2.1c0-0.1,0-0.2,0-0.3c0-0.2,0-0.5,0.1-0.7
		c0.1-0.5,0.1-1.1,0.2-1.7c0-0.2,0-0.5,0-0.8c0-0.2,0-0.3-0.1-0.6c0-0.1,0-0.2,0-0.3l-0.2-1.6c-0.1-0.6-0.1-1.2-0.1-1.8
		c0-0.8,0.2-1.5,0.5-2.2c0.2-0.4,0.6-0.5,1-0.4c0.4,0.2,0.5,0.6,0.4,1c-0.2,0.5-0.4,1.1-0.4,1.7c0,0.5,0,1,0,1.5l0.2,1.6
		c0,0.1,0,0.1,0,0.2c0,0.2,0.1,0.5,0.1,0.8c0,0.4,0,0.7-0.1,1c-0.1,0.5-0.1,1.1-0.2,1.6c0,0.2,0,0.5-0.1,0.7c0,0.1,0,0.2,0,0.3
		c0,0.4-0.1,0.9,0,1.1c0.2,0.4,0.1,0.8-0.2,1C46,31.6,45.8,31.7,45.7,31.7z"/>
</g>
</svg>
